<mxfile host="app.diagrams.net" modified="2022-12-29T02:33:28.195Z" agent="5.0 (Macintosh; Intel Mac OS X 10_15_7) AppleWebKit/537.36 (KHTML, like Gecko) Chrome/108.0.0.0 Safari/537.36" etag="LRzp2exkUFTBuMz7fAmo" version="20.5.3" type="github">
  <diagram id="QdmDUQSwTtYV_Cvaa8b2" name="Page-1">
    <mxGraphModel dx="1554" dy="2024" grid="1" gridSize="10" guides="1" tooltips="1" connect="1" arrows="1" fold="1" page="0" pageScale="1" pageWidth="827" pageHeight="1169" math="0" shadow="0">
      <root>
        <mxCell id="0" />
        <mxCell id="1" parent="0" />
        <mxCell id="9X448EbuMKJNrpHYfYbH-71" value="" style="rounded=0;whiteSpace=wrap;html=1;shadow=1;glass=0;sketch=0;fontFamily=Helvetica;fontSize=15;movable=0;resizable=0;rotatable=0;deletable=0;editable=0;connectable=0;" parent="1" vertex="1">
          <mxGeometry x="200" y="-80" width="1940" height="830" as="geometry" />
        </mxCell>
        <mxCell id="9X448EbuMKJNrpHYfYbH-57" value="" style="rounded=0;whiteSpace=wrap;html=1;shadow=1;glass=0;sketch=0;fontFamily=Helvetica;fontSize=15;fillColor=#FFE599;" parent="1" vertex="1">
          <mxGeometry x="1127.75" y="1465" width="760" height="140" as="geometry" />
        </mxCell>
        <mxCell id="9X448EbuMKJNrpHYfYbH-13" value="" style="rounded=0;whiteSpace=wrap;html=1;movable=0;resizable=0;rotatable=0;deletable=0;editable=0;connectable=0;" parent="1" vertex="1">
          <mxGeometry x="200" y="-920" width="1940" height="700" as="geometry" />
        </mxCell>
        <mxCell id="-pIjKqf0iVGdPuDhPLib-8" value="V4GroupCalling" style="swimlane;fontStyle=1;align=center;verticalAlign=top;childLayout=stackLayout;horizontal=1;startSize=26;horizontalStack=0;resizeParent=1;resizeParentMax=0;resizeLast=0;collapsible=1;marginBottom=0;" parent="1" vertex="1">
          <mxGeometry x="1472.5" y="-355" width="150" height="70" as="geometry" />
        </mxCell>
        <mxCell id="-pIjKqf0iVGdPuDhPLib-9" value="&#xa;" style="text;strokeColor=none;fillColor=none;align=left;verticalAlign=top;spacingLeft=4;spacingRight=4;overflow=hidden;rotatable=0;points=[[0,0.5],[1,0.5]];portConstraint=eastwest;" parent="-pIjKqf0iVGdPuDhPLib-8" vertex="1">
          <mxGeometry y="26" width="150" height="44" as="geometry" />
        </mxCell>
        <mxCell id="-pIjKqf0iVGdPuDhPLib-10" value="V4SingleCalling" style="swimlane;fontStyle=1;align=center;verticalAlign=top;childLayout=stackLayout;horizontal=1;startSize=26;horizontalStack=0;resizeParent=1;resizeParentMax=0;resizeLast=0;collapsible=1;marginBottom=0;" parent="1" vertex="1">
          <mxGeometry x="1277" y="-355.5" width="150" height="70.5" as="geometry" />
        </mxCell>
        <mxCell id="-pIjKqf0iVGdPuDhPLib-12" value="V4MultiCalling" style="swimlane;fontStyle=1;align=center;verticalAlign=top;childLayout=stackLayout;horizontal=1;startSize=26;horizontalStack=0;resizeParent=1;resizeParentMax=0;resizeLast=0;collapsible=1;marginBottom=0;" parent="1" vertex="1">
          <mxGeometry x="1672" y="-355" width="148" height="70.5" as="geometry" />
        </mxCell>
        <mxCell id="-pIjKqf0iVGdPuDhPLib-21" value="«interface»&lt;br&gt;&lt;p class=&quot;p1&quot; style=&quot;margin: 0px ; font-stretch: normal ; font-size: 13px ; line-height: normal ; font-family: &amp;quot;helvetica neue&amp;quot;&quot;&gt;BaseCalling&lt;/p&gt;" style="html=1;fillColor=#ffe6cc;strokeColor=#d79b00;" parent="1" vertex="1">
          <mxGeometry x="1447" y="-484" width="201" height="60" as="geometry" />
        </mxCell>
        <mxCell id="-pIjKqf0iVGdPuDhPLib-25" value="&lt;p style=&quot;margin: 0px ; margin-top: 4px ; text-align: center&quot;&gt;&lt;b&gt;TUICallEngine&lt;/b&gt;&lt;br&gt;&lt;/p&gt;&lt;hr size=&quot;1&quot;&gt;&lt;p style=&quot;margin: 0px ; margin-left: 4px&quot;&gt;&lt;/p&gt;&lt;p style=&quot;margin: 0px ; margin-left: 4px&quot;&gt;+ create&lt;span style=&quot;font-family: &amp;quot;helvetica neue&amp;quot; ; font-size: 13px&quot;&gt;Instance()&lt;/span&gt;&lt;/p&gt;&lt;p style=&quot;margin: 0px 0px 0px 4px;&quot;&gt;+&amp;nbsp;&lt;span style=&quot;font-family: &amp;quot;Helvetica Neue&amp;quot;; font-size: 13px; background-color: initial;&quot;&gt;destroyInstance&lt;/span&gt;&lt;span style=&quot;font-family: &amp;quot;helvetica neue&amp;quot;; font-size: 13px; background-color: initial;&quot;&gt;()&lt;/span&gt;&lt;/p&gt;&lt;p class=&quot;p1&quot; style=&quot;margin: 0px ; font-stretch: normal ; font-size: 13px ; line-height: normal ; font-family: &amp;quot;helvetica neue&amp;quot;&quot;&gt;&amp;nbsp;+&amp;nbsp;&lt;span style=&quot;font-family: &amp;quot;Helvetica Neue&amp;quot;; background-color: initial;&quot;&gt;addObserver&lt;/span&gt;&lt;span style=&quot;background-color: initial;&quot;&gt;()&lt;/span&gt;&lt;/p&gt;&lt;p style=&quot;margin: 0px; font-stretch: normal; font-size: 13px; line-height: normal; font-family: &amp;quot;helvetica neue&amp;quot;;&quot; class=&quot;p1&quot;&gt;&amp;nbsp;+ remove&lt;span style=&quot;font-family: &amp;quot;Helvetica Neue&amp;quot;; background-color: initial;&quot;&gt;Observer&lt;/span&gt;&lt;span style=&quot;background-color: initial;&quot;&gt;()&lt;/span&gt;&lt;/p&gt;&lt;p class=&quot;p1&quot; style=&quot;margin: 0px ; font-stretch: normal ; font-size: 13px ; line-height: normal ; font-family: &amp;quot;helvetica neue&amp;quot;&quot;&gt;&amp;nbsp;+ call()&lt;/p&gt;&lt;p class=&quot;p1&quot; style=&quot;margin: 0px ; font-stretch: normal ; font-size: 13px ; line-height: normal ; font-family: &amp;quot;helvetica neue&amp;quot;&quot;&gt;&amp;nbsp;+&amp;nbsp;&lt;span style=&quot;font-family: &amp;quot;Helvetica Neue&amp;quot;; background-color: initial;&quot;&gt;groupCall()&lt;/span&gt;&lt;/p&gt;&lt;p class=&quot;p1&quot; style=&quot;margin: 0px ; font-stretch: normal ; font-size: 13px ; line-height: normal ; font-family: &amp;quot;helvetica neue&amp;quot;&quot;&gt;&amp;nbsp;+ accept()&lt;/p&gt;&lt;p class=&quot;p1&quot; style=&quot;margin: 0px ; font-stretch: normal ; font-size: 13px ; line-height: normal ; font-family: &amp;quot;helvetica neue&amp;quot;&quot;&gt;&amp;nbsp;……&lt;/p&gt;" style="verticalAlign=top;align=left;overflow=fill;fontSize=12;fontFamily=Helvetica;html=1;" parent="1" vertex="1">
          <mxGeometry x="1039" y="-709" width="478" height="170" as="geometry" />
        </mxCell>
        <mxCell id="2P1NGA306VZBWgPoIP3o-4" style="edgeStyle=orthogonalEdgeStyle;rounded=0;orthogonalLoop=1;jettySize=auto;html=1;endArrow=block;endFill=0;strokeWidth=1;endSize=12;" parent="1" source="-pIjKqf0iVGdPuDhPLib-29" target="-pIjKqf0iVGdPuDhPLib-25" edge="1">
          <mxGeometry relative="1" as="geometry">
            <Array as="points">
              <mxPoint x="984" y="-500" />
              <mxPoint x="1278" y="-500" />
            </Array>
          </mxGeometry>
        </mxCell>
        <mxCell id="-pIjKqf0iVGdPuDhPLib-29" value="&lt;p class=&quot;p1&quot; style=&quot;text-align: center ; margin: 0px ; font-stretch: normal ; font-size: 13px ; line-height: normal ; font-family: &amp;quot;helvetica neue&amp;quot;&quot;&gt;&lt;b&gt;SignalingData&lt;/b&gt;&lt;/p&gt;&lt;hr size=&quot;1&quot;&gt;&lt;p style=&quot;margin: 0px ; margin-left: 4px&quot;&gt;&lt;/p&gt;&lt;p class=&quot;p1&quot; style=&quot;margin: 0px ; font-stretch: normal ; font-size: 13px ; line-height: normal ; font-family: &amp;quot;helvetica neue&amp;quot;&quot;&gt;&amp;nbsp;+ version:uint32&lt;/p&gt;&lt;p style=&quot;margin: 0px 0px 0px 4px&quot;&gt;……&lt;br&gt;&lt;/p&gt;&lt;p style=&quot;margin: 0px 0px 0px 4px&quot;&gt;&lt;br&gt;&lt;/p&gt;" style="verticalAlign=top;align=left;overflow=fill;fontSize=12;fontFamily=Helvetica;html=1;" parent="1" vertex="1">
          <mxGeometry x="907" y="-460" width="153" height="70" as="geometry" />
        </mxCell>
        <mxCell id="-pIjKqf0iVGdPuDhPLib-45" value="&lt;p class=&quot;p1&quot; style=&quot;text-align: center ; margin: 0px ; font-stretch: normal ; line-height: normal&quot;&gt;&lt;font face=&quot;helvetica neue&quot;&gt;&lt;span style=&quot;font-size: 13px;&quot;&gt;&lt;b&gt;SignalingPackageUtils&lt;/b&gt;&lt;/span&gt;&lt;/font&gt;&lt;br&gt;&lt;/p&gt;&lt;hr size=&quot;1&quot;&gt;&lt;p style=&quot;margin: 0px ; margin-left: 4px&quot;&gt;&lt;/p&gt;&lt;p class=&quot;p1&quot; style=&quot;margin: 0px ; font-stretch: normal ; font-size: 13px ; line-height: normal ; font-family: &amp;quot;helvetica neue&amp;quot;&quot;&gt;&amp;nbsp; 处理信令封装&lt;/p&gt;&lt;p style=&quot;margin: 0px 0px 0px 4px&quot;&gt;&lt;br&gt;&lt;/p&gt;" style="verticalAlign=top;align=left;overflow=fill;fontSize=12;fontFamily=Helvetica;html=1;" parent="1" vertex="1">
          <mxGeometry x="907" y="-355" width="150" height="78" as="geometry" />
        </mxCell>
        <mxCell id="-pIjKqf0iVGdPuDhPLib-48" value="" style="endArrow=block;dashed=1;endFill=0;endSize=12;html=1;rounded=0;entryX=0.5;entryY=1;entryDx=0;entryDy=0;exitX=0.5;exitY=0;exitDx=0;exitDy=0;" parent="1" source="-pIjKqf0iVGdPuDhPLib-8" target="-pIjKqf0iVGdPuDhPLib-21" edge="1">
          <mxGeometry width="160" relative="1" as="geometry">
            <mxPoint x="1756" y="-424" as="sourcePoint" />
            <mxPoint x="1916" y="-424" as="targetPoint" />
          </mxGeometry>
        </mxCell>
        <mxCell id="7KBN1eFFDNRq9StgGRBP-2" value="TRTCCloudDelegate" style="html=1;fillColor=#CCCCCC;strokeColor=none;shadow=0;fontStyle=1" parent="1" vertex="1">
          <mxGeometry x="998" y="-816" width="241" height="52.5" as="geometry" />
        </mxCell>
        <mxCell id="7KBN1eFFDNRq9StgGRBP-3" value="V2TIMSignalingListener" style="html=1;fillColor=#CCCCCC;strokeColor=none;shadow=0;fontStyle=1" parent="1" vertex="1">
          <mxGeometry x="1338" y="-816" width="230" height="52.5" as="geometry" />
        </mxCell>
        <mxCell id="7KBN1eFFDNRq9StgGRBP-9" value="" style="endArrow=block;dashed=1;endFill=0;endSize=12;html=1;rounded=0;sourcePerimeterSpacing=10;targetPerimeterSpacing=10;entryX=0.461;entryY=0.971;entryDx=0;entryDy=0;entryPerimeter=0;" parent="1" target="7KBN1eFFDNRq9StgGRBP-2" edge="1">
          <mxGeometry width="160" relative="1" as="geometry">
            <mxPoint x="1278" y="-706" as="sourcePoint" />
            <mxPoint x="1438" y="-706" as="targetPoint" />
            <Array as="points">
              <mxPoint x="1278" y="-736" />
              <mxPoint x="1108" y="-736" />
            </Array>
          </mxGeometry>
        </mxCell>
        <mxCell id="7KBN1eFFDNRq9StgGRBP-10" value="" style="endArrow=block;dashed=1;endFill=0;endSize=12;html=1;rounded=0;sourcePerimeterSpacing=10;targetPerimeterSpacing=10;exitX=0.5;exitY=0;exitDx=0;exitDy=0;" parent="1" source="-pIjKqf0iVGdPuDhPLib-25" edge="1">
          <mxGeometry width="160" relative="1" as="geometry">
            <mxPoint x="1288" y="-696" as="sourcePoint" />
            <mxPoint x="1458" y="-766" as="targetPoint" />
            <Array as="points">
              <mxPoint x="1278" y="-736" />
              <mxPoint x="1458" y="-736" />
            </Array>
          </mxGeometry>
        </mxCell>
        <mxCell id="7KBN1eFFDNRq9StgGRBP-20" style="edgeStyle=orthogonalEdgeStyle;rounded=0;orthogonalLoop=1;jettySize=auto;html=1;entryX=0.5;entryY=0;entryDx=0;entryDy=0;fontSize=15;startArrow=block;startFill=0;endArrow=none;endFill=0;startSize=12;sourcePerimeterSpacing=10;targetPerimeterSpacing=10;exitX=0.569;exitY=0.994;exitDx=0;exitDy=0;exitPerimeter=0;" parent="1" source="-pIjKqf0iVGdPuDhPLib-25" target="-pIjKqf0iVGdPuDhPLib-21" edge="1">
          <mxGeometry relative="1" as="geometry">
            <mxPoint x="1311.1619999999998" y="-536" as="sourcePoint" />
            <mxPoint x="1311.49" y="-472.98" as="targetPoint" />
            <Array as="points">
              <mxPoint x="1311" y="-497" />
              <mxPoint x="1548" y="-497" />
            </Array>
          </mxGeometry>
        </mxCell>
        <mxCell id="7KBN1eFFDNRq9StgGRBP-21" value="" style="endArrow=block;dashed=1;endFill=0;endSize=12;html=1;rounded=0;exitX=0.5;exitY=0;exitDx=0;exitDy=0;" parent="1" source="-pIjKqf0iVGdPuDhPLib-10" edge="1">
          <mxGeometry width="160" relative="1" as="geometry">
            <mxPoint x="1348.65" y="-355.49999999999994" as="sourcePoint" />
            <mxPoint x="1547" y="-424" as="targetPoint" />
            <Array as="points">
              <mxPoint x="1352" y="-394" />
              <mxPoint x="1547" y="-394" />
            </Array>
          </mxGeometry>
        </mxCell>
        <mxCell id="7KBN1eFFDNRq9StgGRBP-22" value="" style="endArrow=block;dashed=1;endFill=0;endSize=12;html=1;rounded=0;exitX=0.5;exitY=0;exitDx=0;exitDy=0;" parent="1" source="-pIjKqf0iVGdPuDhPLib-12" edge="1">
          <mxGeometry width="160" relative="1" as="geometry">
            <mxPoint x="1462" y="-355.5" as="sourcePoint" />
            <mxPoint x="1547" y="-424" as="targetPoint" />
            <Array as="points">
              <mxPoint x="1747" y="-394" />
              <mxPoint x="1547" y="-394" />
            </Array>
          </mxGeometry>
        </mxCell>
        <mxCell id="7KBN1eFFDNRq9StgGRBP-30" value="" style="endArrow=open;endFill=1;endSize=12;html=1;rounded=0;fontSize=15;sourcePerimeterSpacing=10;targetPerimeterSpacing=10;entryX=0.497;entryY=1.068;entryDx=0;entryDy=0;entryPerimeter=0;" parent="1" target="-pIjKqf0iVGdPuDhPLib-9" edge="1">
          <mxGeometry width="160" relative="1" as="geometry">
            <mxPoint x="1547" y="-249" as="sourcePoint" />
            <mxPoint x="1687" y="-204" as="targetPoint" />
          </mxGeometry>
        </mxCell>
        <mxCell id="7KBN1eFFDNRq9StgGRBP-32" value="" style="endArrow=open;endFill=1;endSize=12;html=1;rounded=0;fontSize=15;sourcePerimeterSpacing=10;targetPerimeterSpacing=10;entryX=0.497;entryY=1.068;entryDx=0;entryDy=0;entryPerimeter=0;" parent="1" edge="1">
          <mxGeometry width="160" relative="1" as="geometry">
            <mxPoint x="1746" y="-248" as="sourcePoint" />
            <mxPoint x="1745.5500000000002" y="-284.49800000000005" as="targetPoint" />
          </mxGeometry>
        </mxCell>
        <mxCell id="8u3mmBFhIudwiXivsbWi-5" style="edgeStyle=orthogonalEdgeStyle;rounded=0;orthogonalLoop=1;jettySize=auto;html=1;entryX=0.5;entryY=1;entryDx=0;entryDy=0;endArrow=open;endFill=0;exitX=0.5;exitY=1;exitDx=0;exitDy=0;" parent="1" source="zl8r0lkkchpc4EEbcVuN-1" target="-pIjKqf0iVGdPuDhPLib-10" edge="1">
          <mxGeometry relative="1" as="geometry">
            <Array as="points">
              <mxPoint x="1943" y="-248" />
              <mxPoint x="1352" y="-248" />
            </Array>
          </mxGeometry>
        </mxCell>
        <mxCell id="zl8r0lkkchpc4EEbcVuN-1" value="&lt;p style=&quot;margin:0px;margin-top:4px;text-align:center;&quot;&gt;&lt;i&gt;&amp;lt;&amp;lt;Interface&amp;gt;&amp;gt;&lt;/i&gt;&lt;br&gt;&lt;span style=&quot;text-align: left;&quot;&gt;TUICallObserver&lt;/span&gt;&lt;br&gt;&lt;/p&gt;&lt;hr size=&quot;1&quot;&gt;&lt;p style=&quot;margin:0px;margin-left:4px;&quot;&gt;+&amp;nbsp;&lt;span style=&quot;font-family: &amp;quot;Helvetica Neue&amp;quot;; font-size: 13px; background-color: initial;&quot;&gt;onError()&lt;/span&gt;&lt;/p&gt;&lt;p style=&quot;margin:0px;margin-left:4px;&quot;&gt;+&amp;nbsp;&lt;span style=&quot;font-family: &amp;quot;Helvetica Neue&amp;quot;; font-size: 13px; background-color: initial;&quot;&gt;onCallReceived()&lt;/span&gt;&lt;/p&gt;&lt;p style=&quot;margin:0px;margin-left:4px;&quot;&gt;+&amp;nbsp;&lt;span style=&quot;font-family: &amp;quot;Helvetica Neue&amp;quot;; font-size: 13px; background-color: initial;&quot;&gt;onCallCancelled&lt;/span&gt;&lt;span style=&quot;background-color: initial;&quot;&gt;()&lt;/span&gt;&lt;/p&gt;&lt;p style=&quot;margin:0px;margin-left:4px;&quot;&gt;+&amp;nbsp;&lt;span style=&quot;font-family: &amp;quot;Helvetica Neue&amp;quot;; font-size: 13px; background-color: initial;&quot;&gt;onCallBegin&lt;/span&gt;&lt;span style=&quot;background-color: initial;&quot;&gt;()&lt;/span&gt;&lt;/p&gt;&lt;p style=&quot;margin:0px;margin-left:4px;&quot;&gt;&lt;span style=&quot;background-color: initial;&quot;&gt;+&amp;nbsp;&lt;/span&gt;&lt;span style=&quot;font-family: &amp;quot;Helvetica Neue&amp;quot;; font-size: 13px; background-color: initial;&quot;&gt;onCallEnd()&lt;/span&gt;&lt;/p&gt;&lt;p style=&quot;margin:0px;margin-left:4px;&quot;&gt;……&lt;/p&gt;" style="verticalAlign=top;align=left;overflow=fill;fontSize=12;fontFamily=Helvetica;html=1;fillColor=#ffe6cc;strokeColor=#d79b00;" parent="1" vertex="1">
          <mxGeometry x="1772" y="-709" width="341" height="150" as="geometry" />
        </mxCell>
        <mxCell id="1vUF5lh6rhaXSpfZY6RA-4" value="&lt;p class=&quot;p1&quot; style=&quot;text-align: center ; margin: 0px ; font-stretch: normal ; line-height: normal&quot;&gt;&lt;font face=&quot;helvetica neue&quot;&gt;&lt;span style=&quot;font-size: 13px;&quot;&gt;&lt;b&gt;SignalingParseUtils&lt;/b&gt;&lt;/span&gt;&lt;/font&gt;&lt;br&gt;&lt;/p&gt;&lt;hr size=&quot;1&quot;&gt;&lt;p style=&quot;margin: 0px ; margin-left: 4px&quot;&gt;&lt;/p&gt;&lt;p class=&quot;p1&quot; style=&quot;margin: 0px ; font-stretch: normal ; font-size: 13px ; line-height: normal ; font-family: &amp;quot;helvetica neue&amp;quot;&quot;&gt;&amp;nbsp; 处理新老信令解析&lt;/p&gt;&lt;p style=&quot;margin: 0px 0px 0px 4px&quot;&gt;&lt;br&gt;&lt;/p&gt;" style="verticalAlign=top;align=left;overflow=fill;fontSize=12;fontFamily=Helvetica;html=1;" parent="1" vertex="1">
          <mxGeometry x="1090" y="-355" width="153" height="76.98" as="geometry" />
        </mxCell>
        <mxCell id="2P1NGA306VZBWgPoIP3o-1" value="&lt;p style=&quot;margin: 0px ; margin-top: 4px ; text-align: center&quot;&gt;&lt;b&gt;TUICallState&lt;/b&gt;&lt;br&gt;&lt;/p&gt;&lt;hr size=&quot;1&quot;&gt;&lt;p style=&quot;margin: 0px ; margin-left: 4px&quot;&gt;&lt;/p&gt;&lt;p style=&quot;margin: 0px ; margin-left: 4px&quot;&gt;&lt;br&gt;&lt;/p&gt;" style="verticalAlign=top;align=left;overflow=fill;fontSize=12;fontFamily=Helvetica;html=1;" parent="1" vertex="1">
          <mxGeometry x="618" y="-709" width="289" height="159" as="geometry" />
        </mxCell>
        <mxCell id="2P1NGA306VZBWgPoIP3o-6" value="&lt;p class=&quot;p1&quot; style=&quot;text-align: center ; margin: 0px ; font-stretch: normal ; line-height: normal&quot;&gt;&lt;font face=&quot;helvetica neue&quot;&gt;&lt;span style=&quot;font-size: 13px;&quot;&gt;&lt;b&gt;BrandUtils&lt;/b&gt;&lt;/span&gt;&lt;/font&gt;&lt;br&gt;&lt;/p&gt;&lt;hr size=&quot;1&quot;&gt;&lt;p style=&quot;margin: 0px ; margin-left: 4px&quot;&gt;&lt;/p&gt;&lt;p class=&quot;p1&quot; style=&quot;margin: 0px ; font-stretch: normal ; font-size: 13px ; line-height: normal ; font-family: &amp;quot;helvetica neue&amp;quot;&quot;&gt;&amp;nbsp; Android：需要识别不同&lt;/p&gt;&lt;p class=&quot;p1&quot; style=&quot;margin: 0px ; font-stretch: normal ; font-size: 13px ; line-height: normal ; font-family: &amp;quot;helvetica neue&amp;quot;&quot;&gt;的手机品牌&lt;/p&gt;&lt;p style=&quot;margin: 0px 0px 0px 4px&quot;&gt;&lt;br&gt;&lt;/p&gt;" style="verticalAlign=top;align=left;overflow=fill;fontSize=12;fontFamily=Helvetica;html=1;" parent="1" vertex="1">
          <mxGeometry x="340" y="-356.02000000000004" width="153" height="76.98" as="geometry" />
        </mxCell>
        <mxCell id="2P1NGA306VZBWgPoIP3o-7" value="&lt;p class=&quot;p1&quot; style=&quot;text-align: center ; margin: 0px ; font-stretch: normal ; line-height: normal&quot;&gt;&lt;font face=&quot;helvetica neue&quot;&gt;&lt;span style=&quot;font-size: 13px;&quot;&gt;&lt;b&gt;PermissionUtils&lt;/b&gt;&lt;/span&gt;&lt;/font&gt;&lt;br&gt;&lt;/p&gt;&lt;hr size=&quot;1&quot;&gt;&lt;p style=&quot;margin: 0px ; margin-left: 4px&quot;&gt;&lt;/p&gt;&lt;p class=&quot;p1&quot; style=&quot;margin: 0px ; font-stretch: normal ; font-size: 13px ; line-height: normal ; font-family: &amp;quot;helvetica neue&amp;quot;&quot;&gt;&amp;nbsp;&amp;nbsp;&lt;/p&gt;" style="verticalAlign=top;align=left;overflow=fill;fontSize=12;fontFamily=Helvetica;html=1;" parent="1" vertex="1">
          <mxGeometry x="523" y="-356.02" width="153" height="76.98" as="geometry" />
        </mxCell>
        <mxCell id="2P1NGA306VZBWgPoIP3o-8" value="&lt;p class=&quot;p1&quot; style=&quot;text-align: center ; margin: 0px ; font-stretch: normal ; line-height: normal&quot;&gt;&lt;font face=&quot;helvetica neue&quot;&gt;&lt;span style=&quot;font-size: 13px;&quot;&gt;&lt;b&gt;SignalingSendUtils&lt;/b&gt;&lt;/span&gt;&lt;/font&gt;&lt;br&gt;&lt;/p&gt;&lt;hr size=&quot;1&quot;&gt;&lt;p style=&quot;margin: 0px ; margin-left: 4px&quot;&gt;&lt;/p&gt;&lt;p class=&quot;p1&quot; style=&quot;margin: 0px ; font-stretch: normal ; font-size: 13px ; line-height: normal ; font-family: &amp;quot;helvetica neue&amp;quot;&quot;&gt;&amp;nbsp; 处理信令发送&lt;/p&gt;&lt;p style=&quot;margin: 0px 0px 0px 4px&quot;&gt;&lt;br&gt;&lt;/p&gt;" style="verticalAlign=top;align=left;overflow=fill;fontSize=12;fontFamily=Helvetica;html=1;" parent="1" vertex="1">
          <mxGeometry x="720" y="-356.02" width="150" height="78" as="geometry" />
        </mxCell>
        <mxCell id="9X448EbuMKJNrpHYfYbH-62" style="edgeStyle=orthogonalEdgeStyle;rounded=0;orthogonalLoop=1;jettySize=auto;html=1;entryX=0;entryY=0.5;entryDx=0;entryDy=0;fontFamily=Helvetica;fontSize=15;" parent="1" source="9X448EbuMKJNrpHYfYbH-1" target="9X448EbuMKJNrpHYfYbH-4" edge="1">
          <mxGeometry relative="1" as="geometry" />
        </mxCell>
        <mxCell id="9X448EbuMKJNrpHYfYbH-1" value="&lt;p style=&quot;margin: 0px ; margin-top: 4px ; text-align: center&quot;&gt;&lt;b&gt;TUICallKitImpl&lt;/b&gt;&lt;/p&gt;&lt;hr size=&quot;1&quot;&gt;&lt;p style=&quot;margin: 0px ; margin-left: 4px&quot;&gt;&lt;/p&gt;&lt;p style=&quot;margin: 0px ; margin-left: 4px&quot;&gt;&lt;/p&gt;&lt;span style=&quot;font-weight: 700 ; text-align: center&quot;&gt;&amp;nbsp;&lt;/span&gt;&lt;span style=&quot;text-align: center&quot;&gt;+&amp;nbsp;&lt;/span&gt;&lt;span style=&quot;font-family: &amp;quot;helvetica neue&amp;quot; ; font-size: 13px&quot;&gt;shareInstance (）&lt;br&gt;&lt;/span&gt;&lt;span style=&quot;text-align: center&quot;&gt;&amp;nbsp;+ call()&lt;br&gt;&lt;/span&gt;&lt;span style=&quot;font-weight: 700 ; text-align: center&quot;&gt;&lt;br&gt;&lt;/span&gt;&lt;div&gt;&lt;br&gt;&lt;/div&gt;" style="verticalAlign=top;align=left;overflow=fill;fontSize=12;fontFamily=Helvetica;html=1;fontStyle=0" parent="1" vertex="1">
          <mxGeometry x="422" y="143" width="235" height="78" as="geometry" />
        </mxCell>
        <mxCell id="9X448EbuMKJNrpHYfYbH-2" value="&lt;p style=&quot;margin: 0px ; margin-top: 4px ; text-align: center&quot;&gt;&lt;span&gt;&lt;b&gt;TUICallKit&lt;/b&gt;&lt;/span&gt;&lt;/p&gt;&lt;hr size=&quot;1&quot;&gt;&lt;p style=&quot;margin: 0px ; margin-left: 4px&quot;&gt;&lt;b&gt;&lt;br&gt;&lt;/b&gt;&lt;/p&gt;&lt;hr size=&quot;1&quot;&gt;&lt;p style=&quot;margin: 0px ; margin-left: 4px&quot;&gt;&lt;/p&gt;&lt;b&gt;&lt;br&gt;&lt;/b&gt;&lt;p style=&quot;margin: 0px ; margin-left: 4px&quot;&gt;&lt;br&gt;&lt;/p&gt;" style="verticalAlign=top;align=left;overflow=fill;fontSize=12;fontFamily=Helvetica;html=1;fontStyle=0;fillColor=#d5e8d4;strokeColor=#82b366;" parent="1" vertex="1">
          <mxGeometry x="445.5" width="188" height="77" as="geometry" />
        </mxCell>
        <mxCell id="9X448EbuMKJNrpHYfYbH-3" value="" style="endArrow=block;dashed=1;endFill=0;endSize=12;html=1;rounded=0;exitX=0.5;exitY=0;exitDx=0;exitDy=0;entryX=0.5;entryY=1;entryDx=0;entryDy=0;" parent="1" source="9X448EbuMKJNrpHYfYbH-1" target="9X448EbuMKJNrpHYfYbH-2" edge="1">
          <mxGeometry width="160" relative="1" as="geometry">
            <mxPoint x="594.5" y="118" as="sourcePoint" />
            <mxPoint x="754.5" y="118" as="targetPoint" />
          </mxGeometry>
        </mxCell>
        <mxCell id="9X448EbuMKJNrpHYfYbH-4" value="&lt;p style=&quot;margin: 0px ; margin-top: 4px ; text-align: center&quot;&gt;&lt;b&gt;CallKitActivtiy&lt;/b&gt;&lt;/p&gt;&lt;hr size=&quot;1&quot;&gt;&lt;p style=&quot;margin: 0px ; margin-left: 4px&quot;&gt;&lt;/p&gt;&lt;p style=&quot;margin: 0px ; margin-left: 4px&quot;&gt;&lt;/p&gt;&lt;span style=&quot;font-weight: 700 ; text-align: center&quot;&gt;&amp;nbsp;&lt;/span&gt;&lt;span style=&quot;text-align: center&quot;&gt;+ onCreate&lt;/span&gt;&lt;span style=&quot;font-family: &amp;quot;helvetica neue&amp;quot; ; font-size: 13px&quot;&gt;&amp;nbsp;(）&lt;/span&gt;&lt;span style=&quot;text-align: center&quot;&gt;&lt;br&gt;&lt;/span&gt;&lt;span style=&quot;font-weight: 700 ; text-align: center&quot;&gt;&lt;br&gt;&lt;/span&gt;&lt;div&gt;&lt;br&gt;&lt;/div&gt;" style="verticalAlign=top;align=left;overflow=fill;fontSize=12;fontFamily=Helvetica;html=1;fontStyle=0" parent="1" vertex="1">
          <mxGeometry x="1019" y="149.5" width="180.5" height="66" as="geometry" />
        </mxCell>
        <mxCell id="9X448EbuMKJNrpHYfYbH-5" style="edgeStyle=orthogonalEdgeStyle;rounded=0;orthogonalLoop=1;jettySize=auto;html=1;" parent="1" source="9X448EbuMKJNrpHYfYbH-6" target="9X448EbuMKJNrpHYfYbH-7" edge="1">
          <mxGeometry relative="1" as="geometry" />
        </mxCell>
        <mxCell id="9X448EbuMKJNrpHYfYbH-6" value="&lt;p style=&quot;margin: 0px ; margin-top: 4px ; text-align: center&quot;&gt;&lt;b&gt;VideoFactory&lt;/b&gt;&lt;/p&gt;&lt;hr size=&quot;1&quot;&gt;&lt;p style=&quot;margin: 0px ; margin-left: 4px&quot;&gt;&lt;/p&gt;&lt;p style=&quot;margin: 0px ; margin-left: 4px&quot;&gt;&lt;/p&gt;&lt;span style=&quot;font-weight: 700 ; text-align: center&quot;&gt;&amp;nbsp;&lt;/span&gt;&lt;span style=&quot;text-align: center&quot;&gt;+ createVideoView()&lt;br&gt;&lt;/span&gt;&lt;span style=&quot;text-align: center&quot;&gt;&amp;nbsp;+ destoryVideoView()&lt;br&gt;&lt;/span&gt;" style="verticalAlign=top;align=left;overflow=fill;fontSize=12;fontFamily=Helvetica;html=1;fontStyle=0" parent="1" vertex="1">
          <mxGeometry x="1384.75" y="250" width="180.5" height="66" as="geometry" />
        </mxCell>
        <mxCell id="9X448EbuMKJNrpHYfYbH-7" value="&lt;p style=&quot;margin: 0px ; margin-top: 4px ; text-align: center&quot;&gt;&lt;b&gt;VideoView&lt;/b&gt;&lt;/p&gt;&lt;hr size=&quot;1&quot;&gt;&lt;p style=&quot;margin: 0px ; margin-left: 4px&quot;&gt;&lt;/p&gt;&lt;p style=&quot;margin: 0px ; margin-left: 4px&quot;&gt;&lt;/p&gt;&lt;span style=&quot;font-weight: 700 ; text-align: center&quot;&gt;&amp;nbsp;&lt;/span&gt;&lt;span style=&quot;text-align: center&quot;&gt;+ mVideoViewModel&lt;/span&gt;&lt;span style=&quot;text-align: center&quot;&gt;&lt;br&gt;&lt;/span&gt;" style="verticalAlign=top;align=left;overflow=fill;fontSize=12;fontFamily=Helvetica;html=1;fontStyle=0" parent="1" vertex="1">
          <mxGeometry x="1384.75" y="380" width="180.5" height="66" as="geometry" />
        </mxCell>
        <mxCell id="9X448EbuMKJNrpHYfYbH-8" value="&lt;p style=&quot;margin: 0px ; margin-top: 4px ; text-align: center&quot;&gt;&lt;b&gt;VideoViewModel&lt;/b&gt;&lt;/p&gt;&lt;hr size=&quot;1&quot;&gt;&lt;p style=&quot;margin: 0px ; margin-left: 4px&quot;&gt;&lt;/p&gt;&lt;p style=&quot;margin: 0px ; margin-left: 4px&quot;&gt;&lt;/p&gt;&lt;span style=&quot;font-weight: 700 ; text-align: center&quot;&gt;&amp;nbsp;&lt;/span&gt;&lt;span style=&quot;text-align: center;&quot;&gt;+ mVideoStatus：&lt;/span&gt;&lt;span style=&quot;text-align: center;&quot;&gt;LiveData&amp;lt;Enum&amp;gt;&lt;/span&gt;&lt;span style=&quot;text-align: center&quot;&gt;&lt;br&gt;&lt;/span&gt;" style="verticalAlign=top;align=left;overflow=fill;fontSize=12;fontFamily=Helvetica;html=1;fontStyle=0" parent="1" vertex="1">
          <mxGeometry x="1355" y="512.5" width="240" height="74.5" as="geometry" />
        </mxCell>
        <mxCell id="9X448EbuMKJNrpHYfYbH-9" value="&lt;p style=&quot;margin: 0px ; margin-top: 4px ; text-align: center&quot;&gt;&lt;b&gt;CallEngineService&lt;/b&gt;&lt;/p&gt;&lt;hr size=&quot;1&quot;&gt;&lt;p style=&quot;margin: 0px ; margin-left: 4px&quot;&gt;&lt;/p&gt;&lt;p style=&quot;margin: 0px ; margin-left: 4px&quot;&gt;&lt;/p&gt;&lt;span style=&quot;font-weight: 700 ; text-align: center&quot;&gt;&amp;nbsp;&lt;/span&gt;&lt;span style=&quot;text-align: center&quot;&gt;+ createVideoView()&lt;/span&gt;&lt;span style=&quot;text-align: center&quot;&gt;&lt;br&gt;&lt;/span&gt;" style="verticalAlign=top;align=left;overflow=fill;fontSize=12;fontFamily=Helvetica;html=1;fontStyle=0" parent="1" vertex="1">
          <mxGeometry x="1010" y="587" width="180.5" height="66" as="geometry" />
        </mxCell>
        <mxCell id="9X448EbuMKJNrpHYfYbH-11" value="" style="endArrow=diamondThin;endFill=0;endSize=24;html=1;rounded=0;exitX=0.5;exitY=0;exitDx=0;exitDy=0;entryX=0.5;entryY=1;entryDx=0;entryDy=0;" parent="1" source="9X448EbuMKJNrpHYfYbH-8" target="9X448EbuMKJNrpHYfYbH-7" edge="1">
          <mxGeometry width="160" relative="1" as="geometry">
            <mxPoint x="1112" y="387" as="sourcePoint" />
            <mxPoint x="1272" y="387" as="targetPoint" />
          </mxGeometry>
        </mxCell>
        <mxCell id="9X448EbuMKJNrpHYfYbH-12" value="" style="rounded=0;whiteSpace=wrap;html=1;" parent="1" vertex="1">
          <mxGeometry x="1080" y="-480" width="120" height="60" as="geometry" />
        </mxCell>
        <mxCell id="9X448EbuMKJNrpHYfYbH-14" value="Text" style="text;html=1;strokeColor=none;fillColor=none;align=center;verticalAlign=middle;whiteSpace=wrap;rounded=0;" parent="1" vertex="1">
          <mxGeometry x="1110" y="-460" width="60" height="30" as="geometry" />
        </mxCell>
        <mxCell id="9X448EbuMKJNrpHYfYbH-15" value="&lt;b&gt;&lt;font style=&quot;font-size: 16px;&quot;&gt;TUICallEngine&lt;/font&gt;&lt;/b&gt;" style="text;html=1;strokeColor=none;fillColor=none;align=center;verticalAlign=middle;whiteSpace=wrap;rounded=0;" parent="1" vertex="1">
          <mxGeometry x="210" y="-910" width="120" height="30" as="geometry" />
        </mxCell>
        <mxCell id="9X448EbuMKJNrpHYfYbH-18" value="&lt;b&gt;&lt;font style=&quot;font-size: 16px;&quot;&gt;TUICallKit&lt;/font&gt;&lt;/b&gt;" style="text;html=1;strokeColor=none;fillColor=none;align=center;verticalAlign=middle;whiteSpace=wrap;rounded=0;" parent="1" vertex="1">
          <mxGeometry x="200.75" y="-50" width="120" height="30" as="geometry" />
        </mxCell>
        <mxCell id="9X448EbuMKJNrpHYfYbH-20" value="&lt;span style=&quot;font-size: 10px;&quot;&gt;1. ViewModel&amp;nbsp; 可以直接操作 CallEngine，因为CallEngine 是单例，&lt;br&gt;2. ViewModel 提供 LiveData 类型的变量，交给 View 来注册监听；&lt;br&gt;3. ViewModel 通过 TUINotification 的总线结构，来接收 CallEngineService 的发送过来的事件监听&lt;br&gt;&lt;/span&gt;" style="text;html=1;strokeColor=#d6b656;fillColor=#fff2cc;align=left;verticalAlign=middle;whiteSpace=wrap;rounded=1;fontFamily=Helvetica;fontSize=16;glass=0;shadow=1;" parent="1" vertex="1">
          <mxGeometry x="340" y="587" width="433" height="100" as="geometry" />
        </mxCell>
        <mxCell id="9X448EbuMKJNrpHYfYbH-24" value="" style="rounded=0;whiteSpace=wrap;html=1;shadow=1;glass=0;sketch=0;fontFamily=Helvetica;fontSize=10;fillColor=#FFE599;" parent="1" vertex="1">
          <mxGeometry x="287.75" y="1065" width="280" height="540" as="geometry" />
        </mxCell>
        <mxCell id="9X448EbuMKJNrpHYfYbH-25" value="" style="rounded=1;whiteSpace=wrap;html=1;shadow=1;glass=0;sketch=0;fontFamily=Helvetica;fontSize=10;fillColor=#d5e8d4;strokeColor=#82b366;" parent="1" vertex="1">
          <mxGeometry x="332.75" y="1135" width="190" height="90" as="geometry" />
        </mxCell>
        <mxCell id="9X448EbuMKJNrpHYfYbH-26" value="" style="rounded=1;whiteSpace=wrap;html=1;shadow=1;glass=0;sketch=0;fontFamily=Helvetica;fontSize=10;fillColor=#f8cecc;strokeColor=#b85450;" parent="1" vertex="1">
          <mxGeometry x="357.75" y="1085" width="140" height="20" as="geometry" />
        </mxCell>
        <mxCell id="9X448EbuMKJNrpHYfYbH-27" value="" style="rounded=1;whiteSpace=wrap;html=1;shadow=1;glass=0;sketch=0;fontFamily=Helvetica;fontSize=10;fillColor=#d5e8d4;strokeColor=#82b366;" parent="1" vertex="1">
          <mxGeometry x="307.75" y="1385" width="250" height="200" as="geometry" />
        </mxCell>
        <mxCell id="9X448EbuMKJNrpHYfYbH-28" value="" style="ellipse;whiteSpace=wrap;html=1;rounded=1;shadow=1;glass=0;sketch=0;fontFamily=Helvetica;fontSize=10;fillColor=#FFE599;" parent="1" vertex="1">
          <mxGeometry x="320.75" y="1495" width="70" height="60" as="geometry" />
        </mxCell>
        <mxCell id="9X448EbuMKJNrpHYfYbH-29" value="" style="ellipse;whiteSpace=wrap;html=1;rounded=1;shadow=1;glass=0;sketch=0;fontFamily=Helvetica;fontSize=10;fillColor=#FFE599;" parent="1" vertex="1">
          <mxGeometry x="467.75" y="1495" width="70" height="60" as="geometry" />
        </mxCell>
        <mxCell id="9X448EbuMKJNrpHYfYbH-32" value="" style="rounded=0;whiteSpace=wrap;html=1;shadow=1;glass=0;sketch=0;fontFamily=Helvetica;fontSize=10;fillColor=#FFE599;" parent="1" vertex="1">
          <mxGeometry x="722.75" y="1060" width="280" height="540" as="geometry" />
        </mxCell>
        <mxCell id="9X448EbuMKJNrpHYfYbH-33" value="" style="rounded=1;whiteSpace=wrap;html=1;shadow=1;glass=0;sketch=0;fontFamily=Helvetica;fontSize=10;fillColor=#d5e8d4;strokeColor=#82b366;" parent="1" vertex="1">
          <mxGeometry x="767.75" y="1145" width="190" height="90" as="geometry" />
        </mxCell>
        <mxCell id="9X448EbuMKJNrpHYfYbH-34" value="" style="rounded=1;whiteSpace=wrap;html=1;shadow=1;glass=0;sketch=0;fontFamily=Helvetica;fontSize=10;fillColor=#f8cecc;strokeColor=#b85450;" parent="1" vertex="1">
          <mxGeometry x="787.75" y="1085" width="140" height="20" as="geometry" />
        </mxCell>
        <mxCell id="9X448EbuMKJNrpHYfYbH-35" value="" style="rounded=1;whiteSpace=wrap;html=1;shadow=1;glass=0;sketch=0;fontFamily=Helvetica;fontSize=10;fillColor=#d5e8d4;strokeColor=#82b366;" parent="1" vertex="1">
          <mxGeometry x="737.75" y="1385" width="250" height="200" as="geometry" />
        </mxCell>
        <mxCell id="9X448EbuMKJNrpHYfYbH-36" value="" style="ellipse;whiteSpace=wrap;html=1;rounded=1;shadow=1;glass=0;sketch=0;fontFamily=Helvetica;fontSize=10;fillColor=#FFE599;" parent="1" vertex="1">
          <mxGeometry x="750.75" y="1495" width="70" height="60" as="geometry" />
        </mxCell>
        <mxCell id="9X448EbuMKJNrpHYfYbH-37" value="" style="ellipse;whiteSpace=wrap;html=1;rounded=1;shadow=1;glass=0;sketch=0;fontFamily=Helvetica;fontSize=10;fillColor=#FFE599;" parent="1" vertex="1">
          <mxGeometry x="897.75" y="1495" width="70" height="60" as="geometry" />
        </mxCell>
        <mxCell id="9X448EbuMKJNrpHYfYbH-38" value="" style="ellipse;whiteSpace=wrap;html=1;rounded=1;shadow=1;glass=0;sketch=0;fontFamily=Helvetica;fontSize=10;fillColor=#FFE599;" parent="1" vertex="1">
          <mxGeometry x="822.75" y="1495" width="70" height="60" as="geometry" />
        </mxCell>
        <mxCell id="9X448EbuMKJNrpHYfYbH-39" value="" style="ellipse;whiteSpace=wrap;html=1;rounded=1;shadow=1;glass=0;sketch=0;fontFamily=Helvetica;fontSize=10;fillColor=#FFE599;" parent="1" vertex="1">
          <mxGeometry x="827.75" y="1425" width="70" height="60" as="geometry" />
        </mxCell>
        <mxCell id="9X448EbuMKJNrpHYfYbH-40" value="" style="ellipse;whiteSpace=wrap;html=1;rounded=1;shadow=1;glass=0;sketch=0;fontFamily=Helvetica;fontSize=10;fillColor=#FFE599;" parent="1" vertex="1">
          <mxGeometry x="397.75" y="1435" width="70" height="60" as="geometry" />
        </mxCell>
        <mxCell id="9X448EbuMKJNrpHYfYbH-41" value="Waiting&amp;nbsp; Call" style="text;html=1;align=center;verticalAlign=middle;resizable=0;points=[];autosize=1;strokeColor=none;fillColor=none;fontSize=15;fontFamily=Helvetica;fontStyle=1" parent="1" vertex="1">
          <mxGeometry x="372.75" y="1020" width="110" height="30" as="geometry" />
        </mxCell>
        <mxCell id="9X448EbuMKJNrpHYfYbH-42" value="in&amp;nbsp; Call" style="text;html=1;align=center;verticalAlign=middle;resizable=0;points=[];autosize=1;strokeColor=none;fillColor=none;fontSize=15;fontFamily=Helvetica;fontStyle=1" parent="1" vertex="1">
          <mxGeometry x="827.75" y="1020" width="70" height="30" as="geometry" />
        </mxCell>
        <mxCell id="9X448EbuMKJNrpHYfYbH-45" value="&lt;p style=&quot;margin: 0px ; margin-top: 4px ; text-align: center&quot;&gt;&lt;b&gt;FuncationView&lt;/b&gt;&lt;/p&gt;&lt;hr size=&quot;1&quot;&gt;&lt;p style=&quot;margin: 0px ; margin-left: 4px&quot;&gt;&lt;/p&gt;&lt;p style=&quot;margin: 0px ; margin-left: 4px&quot;&gt;&lt;/p&gt;&lt;span style=&quot;font-weight: 700 ; text-align: center&quot;&gt;&amp;nbsp;&lt;/span&gt;&lt;span style=&quot;text-align: center&quot;&gt;+ mFuncationViewModel&lt;/span&gt;&lt;span style=&quot;text-align: center&quot;&gt;&lt;br&gt;&lt;/span&gt;" style="verticalAlign=top;align=left;overflow=fill;fontSize=12;fontFamily=Helvetica;html=1;fontStyle=0" parent="1" vertex="1">
          <mxGeometry x="1397" y="1035" width="180.5" height="66" as="geometry" />
        </mxCell>
        <mxCell id="9X448EbuMKJNrpHYfYbH-46" value="&lt;p style=&quot;margin: 0px ; margin-top: 4px ; text-align: center&quot;&gt;&lt;b&gt;FuncationViewModel&lt;/b&gt;&lt;/p&gt;&lt;hr size=&quot;1&quot;&gt;&lt;p style=&quot;margin: 0px ; margin-left: 4px&quot;&gt;&lt;/p&gt;&lt;p style=&quot;margin: 0px ; margin-left: 4px&quot;&gt;&lt;/p&gt;&lt;span style=&quot;font-weight: 700 ; text-align: center&quot;&gt;&amp;nbsp;&lt;/span&gt;&lt;span style=&quot;text-align: center;&quot;&gt;+ mCallStatus：&lt;/span&gt;&lt;span style=&quot;text-align: center;&quot;&gt;LiveData&amp;lt;Enum&amp;gt;&lt;br&gt;&lt;/span&gt;&lt;span style=&quot;text-align: center&quot;&gt;&lt;br&gt;&amp;nbsp;+ accept() : void&lt;br&gt;&lt;/span&gt;" style="verticalAlign=top;align=left;overflow=fill;fontSize=12;fontFamily=Helvetica;html=1;fontStyle=0" parent="1" vertex="1">
          <mxGeometry x="1367" y="1163.5" width="243" height="91.5" as="geometry" />
        </mxCell>
        <mxCell id="9X448EbuMKJNrpHYfYbH-47" value="&lt;p style=&quot;margin: 0px ; margin-top: 4px ; text-align: center&quot;&gt;&lt;b&gt;CallKitManager&lt;/b&gt;&lt;/p&gt;&lt;hr size=&quot;1&quot;&gt;&lt;p style=&quot;margin: 0px ; margin-left: 4px&quot;&gt;&lt;/p&gt;&lt;p style=&quot;margin: 0px ; margin-left: 4px&quot;&gt;&lt;/p&gt;&lt;span style=&quot;font-weight: 700 ; text-align: center&quot;&gt;&amp;nbsp;&lt;/span&gt;&lt;span style=&quot;text-align: center&quot;&gt;+ accept():void&lt;/span&gt;&lt;span style=&quot;text-align: center&quot;&gt;&lt;br&gt;&lt;/span&gt;" style="verticalAlign=top;align=left;overflow=fill;fontSize=12;fontFamily=Helvetica;html=1;fontStyle=0" parent="1" vertex="1">
          <mxGeometry x="1362.25" y="1355" width="247.75" height="70" as="geometry" />
        </mxCell>
        <mxCell id="9X448EbuMKJNrpHYfYbH-48" value="" style="endArrow=diamondThin;endFill=0;endSize=24;html=1;rounded=0;exitX=0.5;exitY=0;exitDx=0;exitDy=0;entryX=0.5;entryY=1;entryDx=0;entryDy=0;" parent="1" source="9X448EbuMKJNrpHYfYbH-46" target="9X448EbuMKJNrpHYfYbH-45" edge="1">
          <mxGeometry width="160" relative="1" as="geometry">
            <mxPoint x="1499" y="1138" as="sourcePoint" />
            <mxPoint x="1659" y="1138" as="targetPoint" />
          </mxGeometry>
        </mxCell>
        <mxCell id="9X448EbuMKJNrpHYfYbH-50" value="mFucationViewModel.callstatus,observer(new onValueChanged（）{&lt;br&gt;&amp;nbsp; &amp;nbsp;&lt;span style=&quot;white-space: pre;&quot;&gt;	&lt;/span&gt;mFuncationView,update(in_call)&lt;br&gt;})" style="text;html=1;strokeColor=none;fillColor=none;align=left;verticalAlign=middle;whiteSpace=wrap;rounded=0;shadow=1;glass=0;sketch=0;fontFamily=Helvetica;fontSize=15;" parent="1" vertex="1">
          <mxGeometry x="1665.25" y="1105" width="460" height="86" as="geometry" />
        </mxCell>
        <mxCell id="9X448EbuMKJNrpHYfYbH-51" value="" style="shape=flexArrow;endArrow=classic;html=1;rounded=0;fontFamily=Helvetica;fontSize=15;" parent="1" edge="1">
          <mxGeometry width="50" height="50" relative="1" as="geometry">
            <mxPoint x="1320" y="1275" as="sourcePoint" />
            <mxPoint x="1320" y="1375" as="targetPoint" />
          </mxGeometry>
        </mxCell>
        <mxCell id="9X448EbuMKJNrpHYfYbH-52" value="" style="shape=flexArrow;endArrow=classic;html=1;rounded=0;fontFamily=Helvetica;fontSize=15;" parent="1" edge="1">
          <mxGeometry width="50" height="50" relative="1" as="geometry">
            <mxPoint x="1320" y="1095" as="sourcePoint" />
            <mxPoint x="1320" y="1195" as="targetPoint" />
          </mxGeometry>
        </mxCell>
        <mxCell id="9X448EbuMKJNrpHYfYbH-53" value="" style="shape=flexArrow;endArrow=classic;html=1;rounded=0;fontFamily=Helvetica;fontSize=15;" parent="1" edge="1">
          <mxGeometry width="50" height="50" relative="1" as="geometry">
            <mxPoint x="1630" y="1355" as="sourcePoint" />
            <mxPoint x="1630" y="1265" as="targetPoint" />
          </mxGeometry>
        </mxCell>
        <mxCell id="9X448EbuMKJNrpHYfYbH-54" value="&lt;p style=&quot;margin: 0px ; margin-top: 4px ; text-align: center&quot;&gt;&lt;b&gt;TUICallEngine&lt;/b&gt;&lt;/p&gt;&lt;hr size=&quot;1&quot;&gt;&lt;p style=&quot;margin: 0px ; margin-left: 4px&quot;&gt;&lt;/p&gt;&lt;p style=&quot;margin: 0px ; margin-left: 4px&quot;&gt;&lt;/p&gt;&lt;span style=&quot;font-weight: 700 ; text-align: center&quot;&gt;&amp;nbsp;&lt;/span&gt;&lt;span style=&quot;text-align: center&quot;&gt;+ accept():void&lt;/span&gt;&lt;span style=&quot;text-align: center&quot;&gt;&lt;br&gt;&lt;/span&gt;" style="verticalAlign=top;align=left;overflow=fill;fontSize=12;fontFamily=Helvetica;html=1;fontStyle=0" parent="1" vertex="1">
          <mxGeometry x="1207.75" y="1495" width="247.75" height="70" as="geometry" />
        </mxCell>
        <mxCell id="9X448EbuMKJNrpHYfYbH-55" value="&lt;p style=&quot;margin: 0px ; margin-top: 4px ; text-align: center&quot;&gt;&lt;b&gt;TUICallObserver&lt;/b&gt;&lt;/p&gt;&lt;hr size=&quot;1&quot;&gt;&lt;p style=&quot;margin: 0px ; margin-left: 4px&quot;&gt;&lt;/p&gt;&lt;p style=&quot;margin: 0px ; margin-left: 4px&quot;&gt;&lt;/p&gt;&lt;span style=&quot;font-weight: 700 ; text-align: center&quot;&gt;&amp;nbsp;&lt;/span&gt;&lt;span style=&quot;text-align: center&quot;&gt;+ accept():void&lt;/span&gt;&lt;span style=&quot;text-align: center&quot;&gt;&lt;br&gt;&lt;/span&gt;" style="verticalAlign=top;align=left;overflow=fill;fontSize=12;fontFamily=Helvetica;html=1;fontStyle=0" parent="1" vertex="1">
          <mxGeometry x="1565.25" y="1495" width="247.75" height="70" as="geometry" />
        </mxCell>
        <mxCell id="9X448EbuMKJNrpHYfYbH-58" value="TUINoification.sendEvent()" style="text;html=1;align=center;verticalAlign=middle;resizable=0;points=[];autosize=1;strokeColor=none;fillColor=none;fontSize=15;fontFamily=Helvetica;" parent="1" vertex="1">
          <mxGeometry x="1680" y="1315" width="200" height="30" as="geometry" />
        </mxCell>
        <mxCell id="9X448EbuMKJNrpHYfYbH-59" value="TUINoification.registerEvent()" style="text;html=1;align=center;verticalAlign=middle;resizable=0;points=[];autosize=1;strokeColor=none;fillColor=none;fontSize=15;fontFamily=Helvetica;" parent="1" vertex="1">
          <mxGeometry x="1680" y="1285" width="220" height="30" as="geometry" />
        </mxCell>
        <mxCell id="9X448EbuMKJNrpHYfYbH-60" value="" style="shape=flexArrow;endArrow=classic;html=1;rounded=0;fontFamily=Helvetica;fontSize=15;" parent="1" edge="1">
          <mxGeometry width="50" height="50" relative="1" as="geometry">
            <mxPoint x="1630" y="1185" as="sourcePoint" />
            <mxPoint x="1630" y="1095" as="targetPoint" />
          </mxGeometry>
        </mxCell>
        <mxCell id="9X448EbuMKJNrpHYfYbH-63" value="&lt;p style=&quot;margin: 0px ; margin-top: 4px ; text-align: center&quot;&gt;&lt;b&gt;FuncationView&lt;/b&gt;&lt;/p&gt;&lt;hr size=&quot;1&quot;&gt;&lt;p style=&quot;margin: 0px ; margin-left: 4px&quot;&gt;&lt;/p&gt;&lt;p style=&quot;margin: 0px ; margin-left: 4px&quot;&gt;&lt;/p&gt;&lt;span style=&quot;font-weight: 700 ; text-align: center&quot;&gt;&amp;nbsp;&lt;/span&gt;&lt;span style=&quot;text-align: center&quot;&gt;+ mFuncationViewModel&lt;/span&gt;&lt;span style=&quot;text-align: center&quot;&gt;&lt;br&gt;&lt;/span&gt;" style="verticalAlign=top;align=left;overflow=fill;fontSize=12;fontFamily=Helvetica;html=1;fontStyle=0" parent="1" vertex="1">
          <mxGeometry x="730" y="284" width="180.5" height="66" as="geometry" />
        </mxCell>
        <mxCell id="9X448EbuMKJNrpHYfYbH-64" value="&lt;p style=&quot;margin: 0px ; margin-top: 4px ; text-align: center&quot;&gt;&lt;b&gt;FuncationViewModel&lt;/b&gt;&lt;/p&gt;&lt;hr size=&quot;1&quot;&gt;&lt;p style=&quot;margin: 0px ; margin-left: 4px&quot;&gt;&lt;/p&gt;&lt;p style=&quot;margin: 0px ; margin-left: 4px&quot;&gt;&lt;/p&gt;&lt;span style=&quot;font-weight: 700 ; text-align: center&quot;&gt;&amp;nbsp;&lt;/span&gt;&lt;span style=&quot;text-align: center;&quot;&gt;+ mCallStatus：&lt;/span&gt;&lt;span style=&quot;text-align: center;&quot;&gt;LiveData&amp;lt;Enum&amp;gt;&lt;/span&gt;&lt;span style=&quot;text-align: center&quot;&gt;&lt;br&gt;&amp;nbsp;+ accept() : void&lt;br&gt;&lt;/span&gt;" style="verticalAlign=top;align=left;overflow=fill;fontSize=12;fontFamily=Helvetica;html=1;fontStyle=0" parent="1" vertex="1">
          <mxGeometry x="700" y="412.5" width="240" height="74.5" as="geometry" />
        </mxCell>
        <mxCell id="9X448EbuMKJNrpHYfYbH-65" value="" style="endArrow=diamondThin;endFill=0;endSize=24;html=1;rounded=0;exitX=0.5;exitY=0;exitDx=0;exitDy=0;entryX=0.5;entryY=1;entryDx=0;entryDy=0;" parent="1" source="9X448EbuMKJNrpHYfYbH-64" target="9X448EbuMKJNrpHYfYbH-63" edge="1">
          <mxGeometry width="160" relative="1" as="geometry">
            <mxPoint x="832" y="387" as="sourcePoint" />
            <mxPoint x="992" y="387" as="targetPoint" />
          </mxGeometry>
        </mxCell>
        <mxCell id="9X448EbuMKJNrpHYfYbH-72" value="&lt;p style=&quot;margin: 0px ; margin-top: 4px ; text-align: center&quot;&gt;&lt;b&gt;WindowManager&lt;/b&gt;&lt;/p&gt;&lt;hr size=&quot;1&quot;&gt;&lt;p style=&quot;margin: 0px ; margin-left: 4px&quot;&gt;&lt;/p&gt;&lt;p style=&quot;margin: 0px ; margin-left: 4px&quot;&gt;&lt;/p&gt;&lt;span style=&quot;font-weight: 700 ; text-align: center&quot;&gt;&amp;nbsp;&lt;/span&gt;&lt;span style=&quot;text-align: center&quot;&gt;+ onCreate&lt;/span&gt;&lt;span style=&quot;font-family: &amp;quot;helvetica neue&amp;quot; ; font-size: 13px&quot;&gt;&amp;nbsp;(）&lt;/span&gt;&lt;span style=&quot;text-align: center&quot;&gt;&lt;br&gt;&lt;/span&gt;&lt;span style=&quot;font-weight: 700 ; text-align: center&quot;&gt;&lt;br&gt;&lt;/span&gt;&lt;div&gt;&lt;br&gt;&lt;/div&gt;" style="verticalAlign=top;align=left;overflow=fill;fontSize=12;fontFamily=Helvetica;html=1;fontStyle=0" parent="1" vertex="1">
          <mxGeometry x="1398.5" y="30" width="180" height="61" as="geometry" />
        </mxCell>
        <mxCell id="EhqyTeBTMF1OIsnDYW2D-1" value="&lt;p style=&quot;margin: 0px ; margin-top: 4px ; text-align: center&quot;&gt;&lt;b&gt;FloatView&lt;/b&gt;&lt;/p&gt;&lt;hr size=&quot;1&quot;&gt;&lt;p style=&quot;margin: 0px ; margin-left: 4px&quot;&gt;&lt;/p&gt;&lt;p style=&quot;margin: 0px ; margin-left: 4px&quot;&gt;&lt;/p&gt;&lt;span style=&quot;font-weight: 700 ; text-align: center&quot;&gt;&amp;nbsp;&lt;/span&gt;&lt;span style=&quot;text-align: center&quot;&gt;+ mFuncationViewModel&lt;/span&gt;&lt;span style=&quot;text-align: center&quot;&gt;&lt;br&gt;&lt;/span&gt;" style="verticalAlign=top;align=left;overflow=fill;fontSize=12;fontFamily=Helvetica;html=1;fontStyle=0" vertex="1" parent="1">
          <mxGeometry x="1019.25" y="270" width="180.5" height="70" as="geometry" />
        </mxCell>
        <mxCell id="EhqyTeBTMF1OIsnDYW2D-2" value="&lt;p style=&quot;margin: 0px ; margin-top: 4px ; text-align: center&quot;&gt;&lt;b&gt;FuncationViewModel&lt;/b&gt;&lt;/p&gt;&lt;hr size=&quot;1&quot;&gt;&lt;p style=&quot;margin: 0px ; margin-left: 4px&quot;&gt;&lt;/p&gt;&lt;p style=&quot;margin: 0px ; margin-left: 4px&quot;&gt;&lt;/p&gt;&lt;span style=&quot;font-weight: 700 ; text-align: center&quot;&gt;&amp;nbsp;&lt;/span&gt;&lt;span style=&quot;text-align: center;&quot;&gt;+ mCallStatus：&lt;/span&gt;&lt;span style=&quot;text-align: center;&quot;&gt;LiveData&amp;lt;Enum&amp;gt;&lt;/span&gt;&lt;span style=&quot;text-align: center&quot;&gt;&lt;br&gt;&amp;nbsp;+ accept() : void&lt;br&gt;&lt;/span&gt;" style="verticalAlign=top;align=left;overflow=fill;fontSize=12;fontFamily=Helvetica;html=1;fontStyle=0" vertex="1" parent="1">
          <mxGeometry x="989.25" y="402.5" width="240" height="74.5" as="geometry" />
        </mxCell>
        <mxCell id="EhqyTeBTMF1OIsnDYW2D-3" value="" style="endArrow=diamondThin;endFill=0;endSize=24;html=1;rounded=0;exitX=0.5;exitY=0;exitDx=0;exitDy=0;entryX=0.5;entryY=1;entryDx=0;entryDy=0;" edge="1" parent="1" source="EhqyTeBTMF1OIsnDYW2D-2" target="EhqyTeBTMF1OIsnDYW2D-1">
          <mxGeometry width="160" relative="1" as="geometry">
            <mxPoint x="1121.25" y="377" as="sourcePoint" />
            <mxPoint x="1281.25" y="377" as="targetPoint" />
          </mxGeometry>
        </mxCell>
        <mxCell id="EhqyTeBTMF1OIsnDYW2D-4" value="Use" style="endArrow=open;endSize=12;dashed=1;html=1;rounded=0;exitX=0.458;exitY=1.044;exitDx=0;exitDy=0;exitPerimeter=0;entryX=0.5;entryY=0;entryDx=0;entryDy=0;" edge="1" parent="1" source="9X448EbuMKJNrpHYfYbH-4" target="9X448EbuMKJNrpHYfYbH-63">
          <mxGeometry width="160" relative="1" as="geometry">
            <mxPoint x="850" y="430" as="sourcePoint" />
            <mxPoint x="1010" y="430" as="targetPoint" />
            <Array as="points">
              <mxPoint x="1102" y="240" />
              <mxPoint x="820" y="240" />
            </Array>
          </mxGeometry>
        </mxCell>
      </root>
    </mxGraphModel>
  </diagram>
</mxfile>
